<svg width="58" height="58" viewBox="0 0 58 58" fill="none" xmlns="http://www.w3.org/2000/svg">
<path d="M40.745 45.9165H46.4242C46.8592 45.9165 47.2459 45.6748 47.4634 45.3123L53.2875 35.1623C53.505 34.7998 53.505 34.3407 53.2875 33.9782L42.0742 13.9198C41.615 13.0982 40.455 13.0982 39.9717 13.8957L36.9267 18.9948C36.7092 19.3815 36.7092 19.8407 36.9267 20.2032L44.805 33.9782C45.0225 34.3407 45.0225 34.7998 44.805 35.1865L39.6575 44.1282C39.2467 44.9015 39.8266 45.9165 40.745 45.9165Z" fill="#325B97"/>
<path d="M23.8282 45.9165H29.5074C29.9424 45.9165 30.3291 45.6748 30.5466 45.3123L36.3707 35.1623C36.5882 34.7998 36.5882 34.3407 36.3707 33.9782L25.1574 13.9198C24.6983 13.0982 23.5383 13.0982 23.055 13.8957L20.0099 18.9948C19.7924 19.3815 19.7924 19.8407 20.0099 20.2032L27.8883 33.9782C28.1058 34.3407 28.1058 34.7998 27.8883 35.1865L22.7408 44.1282C22.3299 44.9015 22.9099 45.9165 23.8282 45.9165Z" fill="#325B97"/>
<path d="M4.34991 45.9165H12.1075C12.5425 45.9165 12.9533 45.6748 13.1708 45.3123L19.0191 34.9449C19.2366 34.5824 19.2366 34.1232 19.0191 33.7365L16.3124 29.0965C15.8533 28.299 14.6933 28.299 14.2341 29.0965L4.34991 45.9165Z" fill="#325B97"/>
</svg>
